<?xml version="1.0" standalone="no"?><!DOCTYPE svg PUBLIC "-//W3C//DTD SVG 1.1//EN" "http://www.w3.org/Graphics/SVG/1.1/DTD/svg11.dtd"><svg t="1501477864463" class="icon" style="" viewBox="0 0 1024 1024" version="1.1" xmlns="http://www.w3.org/2000/svg" p-id="2145" xmlns:xlink="http://www.w3.org/1999/xlink" width="32" height="32"><defs><style type="text/css"></style></defs><path d="M519.228 949.874c147.767 0 280.218-65.243 370.386-168.392H148.848c90.168 103.15 222.618 168.392 370.38 168.392zM519.228 62.866c-147.762 0-280.212 65.246-370.38 168.393h740.767C799.446 128.113 666.995 62.866 519.228 62.866zM449.455 710.494h-95.508l-27.679-86.556H187.884l-27.405 86.556H65.513L207.15 321.393h103.928l138.377 389.1zM306.189 556.642L264.4 425.86c-3.079-9.768-5.245-21.438-6.508-35.004h-2.173c-0.905 11.395-3.167 22.704-6.779 33.917l-42.329 131.869h99.578zM585.672 576.45v134.044H498.03V321.393h137.29c98.046 0 147.067 41.337 147.067 124.001 0 39.076-14.063 70.688-42.188 94.836-28.132 24.15-65.716 36.22-112.745 36.22h-41.782z m0-187.765v121.29h34.458c46.664 0 70.002-20.439 70.002-61.323 0-39.976-23.339-59.967-70.002-59.967h-34.458zM959.57 321.393v67.835h-32.56v253.43h32.56v67.835H806.804v-67.835h32.56v-253.43h-32.56v-67.834h152.764z" p-id="2146" fill="#cccccc"></path></svg>